<svg id="Mark" xmlns="http://www.w3.org/2000/svg" viewBox="0 0 600 600"><g id="_Group_" data-name="&lt;Group&gt;"><path id="_Path_" data-name="&lt;Path&gt;" d="M397.77,322.67l48.92,65.22A182.74,182.74,0,0,0,523,239.21h0a183,183,0,0,0-183-183H76.28V543.79H523L370.71,340.74H279.33l73.1,121.83H157.5V137.68h0l24.37,40.61h67l-30.46-40.61H340A101.53,101.53,0,0,1,441.52,239.21h0A101.35,101.35,0,0,1,397.77,322.67Z"/><polygon id="_Path_2" data-name="&lt;Path&gt;" points="279.33 218.91 206.24 218.91 254.97 300.13 340.25 300.13 279.33 218.91"/></g></svg>